<svg width="100" height="100" xmlns="http://www.w3.org/2000/svg">

 <g>
  <title>Layer 1</title>
  <path id="svg_1" d="m327,321c14,33 86,41 100,24c14,-17 44,-39 39,-59c-5,-20 -7,-20 -21,-36c-14,-16 -13,-32 -22,-41c-9,-9 -26,-8 -35,-8c-9,0 -33,2 -38,18c-5,16 -22,29 -27,38c-5,9 -10,31 4,64z" opacity="NaN" stroke="#000" fill="#fff"/>
  <path id="svg_2" d="m18.54516,59.30046c4.43213,15.23545 5.54016,16.06648 16.8975,20.49861c11.35734,4.43213 27.1468,9.14127 34.34902,3.87811c7.20221,-5.26316 11.91135,-12.18836 13.5734,-22.16066c1.66205,-9.9723 0.55402,-11.35734 -0.27701,-21.32963c-0.83102,-9.9723 -7.47922,-27.42381 -19.39057,-26.03877c-11.91135,1.38504 -24.09971,3.60111 -29.63988,6.37119c-5.54016,2.77008 -10.52631,10.2493 -14.68143,15.78947c-4.15512,5.54016 -5.26316,7.75623 -0.83102,22.99168z" opacity="NaN" stroke="#000" fill="#fff"/>
 </g>
</svg>