<?xml version="1.0" encoding="UTF-8" standalone="no"?>
<!-- Created with Inkscape (http://www.inkscape.org/) -->

<svg
   width="1600"
   height="1600"
   viewBox="0 0 1600 1600"
   version="1.1"
   id="svg1"
   inkscape:version="1.3.2 (091e20ef0f, 2023-11-25)"
   sodipodi:docname="bakery-marker.svg"
   xml:space="preserve"
   inkscape:export-filename="../png/main-color-marker.png"
   inkscape:export-xdpi="96"
   inkscape:export-ydpi="96"
   xmlns:inkscape="http://www.inkscape.org/namespaces/inkscape"
   xmlns:sodipodi="http://sodipodi.sourceforge.net/DTD/sodipodi-0.dtd"
   xmlns="http://www.w3.org/2000/svg"
   xmlns:svg="http://www.w3.org/2000/svg"><sodipodi:namedview
     id="namedview1"
     pagecolor="#1b1b1b"
     bordercolor="#000000"
     borderopacity="0.25"
     inkscape:showpageshadow="2"
     inkscape:pageopacity="0.0"
     inkscape:pagecheckerboard="false"
     inkscape:deskcolor="#1f1f1f"
     inkscape:document-units="px"
     showguides="true"
     inkscape:zoom="0.1767767"
     inkscape:cx="-166.8772"
     inkscape:cy="568.51385"
     inkscape:window-width="1894"
     inkscape:window-height="1011"
     inkscape:window-x="0"
     inkscape:window-y="0"
     inkscape:window-maximized="1"
     inkscape:current-layer="layer1"><sodipodi:guide
       position="0,749.21295"
       orientation="1,0"
       id="guide1"
       inkscape:locked="false" /></sodipodi:namedview><defs
     id="defs1" /><g
     inkscape:label="Layer 1"
     inkscape:groupmode="layer"
     id="layer1"
     transform="matrix(1.257584,0,0,1.257584,-206.06721,-1.2475477)"><g
       id="g1"><circle
         style="fill:none;stroke:#ffffff;stroke-width:37.7953;stroke-linecap:round;stroke-linejoin:round;stroke-dasharray:none"
         id="path2"
         cx="800"
         cy="460.17297"
         r="238.18112" /><path
         id="path3"
         style="fill:none;stroke:#ffffff;stroke-width:37.7953;stroke-linecap:round;stroke-linejoin:round"
         d="m 1168.1276,460.17297 c 0,97.63351 -15.148,130.19423 -74.8634,260.30553 C 1033.5488,850.5898 894.29211,1238.4458 800,1235.6596 698.50444,1232.6605 566.02778,850.58979 506.3124,720.47849 446.59702,590.36719 431.87241,557.80648 431.87241,460.17297 431.87241,256.86172 596.68875,92.04538 800,92.04538 c 97.63351,-3e-6 191.2682,38.78476 260.3055,107.82207 69.0373,69.03732 107.8221,162.67201 107.8221,260.30552 z"
         sodipodi:nodetypes="ssssssss" /><path
         style="fill:#ffffff;fill-opacity:1;stroke:#ffffff;stroke-width:16.4;stroke-linecap:round;stroke-linejoin:round;stroke-dasharray:none;stroke-opacity:1"
         d="m 787.60451,1210.7497 c -13.00907,-6.9769 -36.6807,-30.708 -52.16924,-52.3004 C 694.67256,1101.6225 650.35319,1010.9025 575.59065,831.2537 555.34983,782.61651 527.57883,717.78515 513.87731,687.18399 465.49986,579.1371 458.08226,555.55426 454.13893,497.25729 446.31445,381.58246 480.16187,289.1228 558.47925,212.23499 c 45.51518,-44.68437 93.73681,-72.07329 156.89067,-89.11074 26.05962,-7.03029 34.18477,-7.82151 81.98513,-7.98365 60.82826,-0.20634 81.28789,3.30264 129.69916,22.24437 104.82279,41.0137 182.98349,130.71498 211.12579,242.29912 8.7063,34.52031 10.9485,113.8358 4.2993,152.08591 -6.7978,39.10494 -14.5807,60.41953 -57.57,157.66471 -20.8645,47.19691 -54.7913,125.60659 -75.3931,174.24378 -78.52462,185.38291 -127.28322,278.10681 -171.16637,325.50581 -14.01411,15.1369 -30.74117,26.7453 -38.53854,26.7453 -1.40152,0 -6.89457,-2.331 -12.20678,-5.1799 z m 57.10942,-496.08075 c 129.11065,-22.86829 219.01737,-135.60359 212.62817,-266.61731 -1.8995,-38.9486 -9.9405,-70.90565 -25.8644,-102.79118 -14.2194,-28.47272 -24.0421,-42.09894 -47.74558,-66.23352 -23.48341,-23.91053 -39.89558,-35.8944 -69.34418,-50.63389 -31.70328,-15.868 -62.97322,-23.69337 -102.29435,-25.59941 -132.30694,-6.41339 -245.91469,85.3357 -266.92307,215.56585 -4.91164,30.44709 -2.08736,85.57079 5.75004,112.22798 27.62061,93.94543 105.52172,165.21597 201.11879,184.00051 18.58647,3.65218 72.24741,3.69908 92.67458,0.081 z"
         id="path7" /></g><path
       style="fill:#ff6519;fill-opacity:1;stroke:#ff6519;stroke-width:10.00000001;stroke-linecap:round;stroke-linejoin:round;stroke-dasharray:none;stroke-opacity:1"
       d="M 745.77016,846.21108 C 660.04209,827.18233 590.80335,772.87632 553.79434,695.63873 534.15416,654.64975 526.71306,622.2578 526.71306,577.7508 c 0,-75.07064 27.02141,-140.25204 80.17954,-193.41017 53.15813,-53.15813 118.33953,-80.17953 193.41017,-80.17953 133.0341,0 244.75733,94.01851 269.94573,227.16769 5.1411,27.17674 1.938,90.92035 -5.9617,118.64086 -28.3293,99.40919 -112.29432,177.24377 -211.7268,196.26837 -26.12595,4.9987 -84.21439,4.98407 -106.78984,-0.0269 z"
       id="path8"
       transform="matrix(0.79517551,0,0,0.79517551,163.8596,0.99201938)" /></g></svg>
