<?xml version="1.0" encoding="UTF-8" standalone="no"?>
<!-- Uploaded to: SVG Repo, www.svgrepo.com, Generator: SVG Repo Mixer Tools -->

<svg
   width="800px"
   height="800px"
   viewBox="0 0 24 24"
   fill="none"
   version="1.1"
   id="svg1"
   sodipodi:docname="trash.svg"
   inkscape:version="1.3.2 (091e20ef0f, 2023-11-25)"
   xmlns:inkscape="http://www.inkscape.org/namespaces/inkscape"
   xmlns:sodipodi="http://sodipodi.sourceforge.net/DTD/sodipodi-0.dtd"
   xmlns="http://www.w3.org/2000/svg"
   xmlns:svg="http://www.w3.org/2000/svg">
  <defs
     id="defs1" />
  <sodipodi:namedview
     id="namedview1"
     pagecolor="#313131"
     bordercolor="#000000"
     borderopacity="0.25"
     inkscape:showpageshadow="2"
     inkscape:pageopacity="0.0"
     inkscape:pagecheckerboard="0"
     inkscape:deskcolor="#d1d1d1"
     inkscape:zoom="0.77251416"
     inkscape:cx="297.08193"
     inkscape:cy="376.04489"
     inkscape:window-width="1894"
     inkscape:window-height="1011"
     inkscape:window-x="0"
     inkscape:window-y="0"
     inkscape:window-maximized="1"
     inkscape:current-layer="svg1" />
  <path
     d="m 16.941189,7.0486955 -0.659566,9.8930015 c -0.05773,0.866437 -0.08663,1.299697 -0.273742,1.628204 -0.164788,0.289224 -0.41333,0.521707 -0.712849,0.666896 -0.340201,0.164871 -0.774449,0.164871 -1.642863,0.164871 h -3.304362 c -0.8684141,0 -1.3026211,0 -1.6428471,-0.164871 C 8.4054253,19.091608 8.1568998,18.859125 7.992136,18.569901 7.8049883,18.241394 7.7761072,17.808134 7.7183446,16.941697 L 7.0588113,7.0486955 m -1.6470632,0 H 18.588252"
     stroke="#000000"
     stroke-width="1.64706"
     stroke-linecap="round"
     stroke-linejoin="round"
     id="path1"
     sodipodi:nodetypes="ccccssccsccc"
     style="fill:#ffffff;fill-opacity:1;stroke:#ffffff;stroke-opacity:1" />
  <path
     d="M 15.294126,6.4296546 15.071279,5.7610047 C 14.855267,5.1130336 14.747219,4.7890481 14.546936,4.5495157 14.370042,4.3379916 14.142912,4.1742653 13.886299,4.0733498 13.595675,3.9590601 13.254239,3.9590601 12.571202,3.9590601 h -1.142403 c -0.683037,0 -1.024473,0 -1.315089,0.1142897 -0.2566041,0.1009155 -0.4837672,0.2646418 -0.6606541,0.4761659 -0.200316,0.2395324 -0.308305,0.5635179 -0.524301,1.211489 l -0.222881,0.6686499"
     style="stroke:#ffffff;stroke-width:1.64706;stroke-linecap:round;stroke-linejoin:round;stroke-opacity:1"
     id="path1-5" />
</svg>
